<mxfile host="app.diagrams.net" modified="2024-03-02T07:31:14.238Z" agent="Mozilla/5.0 (Windows NT 10.0; Win64; x64) AppleWebKit/537.36 (KHTML, like Gecko) Chrome/121.0.0.0 Safari/537.36" etag="mkFNdBdUJvpVHnX2KCWZ" version="24.0.0" type="github">
  <diagram name="Page-1" id="wSn7r0S0QlN9HtVt0pnU">
    <mxGraphModel dx="1434" dy="772" grid="1" gridSize="10" guides="1" tooltips="1" connect="1" arrows="1" fold="1" page="1" pageScale="1" pageWidth="850" pageHeight="1100" math="0" shadow="0">
      <root>
        <mxCell id="0" />
        <mxCell id="1" parent="0" />
        <mxCell id="aJ_5fjYi1K7bg0W1sloE-1" value="" style="rounded=1;whiteSpace=wrap;html=1;fillColor=#dae8fc;strokeColor=#6c8ebf;" vertex="1" parent="1">
          <mxGeometry x="90" y="50" width="440" height="630" as="geometry" />
        </mxCell>
        <mxCell id="aJ_5fjYi1K7bg0W1sloE-2" value="Front&lt;div&gt;&lt;br&gt;&lt;/div&gt;" style="text;html=1;align=center;verticalAlign=middle;whiteSpace=wrap;rounded=0;" vertex="1" parent="1">
          <mxGeometry x="110" y="70" width="60" height="30" as="geometry" />
        </mxCell>
        <mxCell id="aJ_5fjYi1K7bg0W1sloE-3" value="&lt;font style=&quot;font-size: 16px;&quot;&gt;Hub&lt;/font&gt;" style="rounded=0;whiteSpace=wrap;html=1;" vertex="1" parent="1">
          <mxGeometry x="130" y="160" width="120" height="110" as="geometry" />
        </mxCell>
        <mxCell id="aJ_5fjYi1K7bg0W1sloE-4" value="&lt;font style=&quot;font-size: 16px;&quot;&gt;Blog&lt;/font&gt;" style="rounded=0;whiteSpace=wrap;html=1;" vertex="1" parent="1">
          <mxGeometry x="350" y="160" width="120" height="110" as="geometry" />
        </mxCell>
        <mxCell id="aJ_5fjYi1K7bg0W1sloE-5" value=":3000&lt;div&gt;&lt;br&gt;&lt;/div&gt;" style="text;html=1;align=center;verticalAlign=middle;whiteSpace=wrap;rounded=0;" vertex="1" parent="1">
          <mxGeometry x="160" y="250" width="60" height="30" as="geometry" />
        </mxCell>
        <mxCell id="aJ_5fjYi1K7bg0W1sloE-6" value="&lt;div&gt;:4000&lt;/div&gt;&lt;div&gt;&lt;br&gt;&lt;/div&gt;" style="text;html=1;align=center;verticalAlign=middle;whiteSpace=wrap;rounded=0;" vertex="1" parent="1">
          <mxGeometry x="380" y="250" width="60" height="30" as="geometry" />
        </mxCell>
        <mxCell id="aJ_5fjYi1K7bg0W1sloE-10" style="edgeStyle=orthogonalEdgeStyle;rounded=0;orthogonalLoop=1;jettySize=auto;html=1;exitX=0;exitY=0;exitDx=0;exitDy=0;" edge="1" parent="1" source="aJ_5fjYi1K7bg0W1sloE-7" target="aJ_5fjYi1K7bg0W1sloE-5">
          <mxGeometry relative="1" as="geometry" />
        </mxCell>
        <mxCell id="aJ_5fjYi1K7bg0W1sloE-11" style="edgeStyle=orthogonalEdgeStyle;rounded=0;orthogonalLoop=1;jettySize=auto;html=1;exitX=1;exitY=0;exitDx=0;exitDy=0;" edge="1" parent="1" source="aJ_5fjYi1K7bg0W1sloE-7" target="aJ_5fjYi1K7bg0W1sloE-6">
          <mxGeometry relative="1" as="geometry" />
        </mxCell>
        <mxCell id="aJ_5fjYi1K7bg0W1sloE-7" value="Switcher" style="ellipse;whiteSpace=wrap;html=1;aspect=fixed;" vertex="1" parent="1">
          <mxGeometry x="270" y="480" width="80" height="80" as="geometry" />
        </mxCell>
        <mxCell id="aJ_5fjYi1K7bg0W1sloE-9" style="edgeStyle=orthogonalEdgeStyle;rounded=0;orthogonalLoop=1;jettySize=auto;html=1;exitX=0.5;exitY=0;exitDx=0;exitDy=0;entryX=0.5;entryY=1;entryDx=0;entryDy=0;" edge="1" parent="1" source="aJ_5fjYi1K7bg0W1sloE-8" target="aJ_5fjYi1K7bg0W1sloE-7">
          <mxGeometry relative="1" as="geometry" />
        </mxCell>
        <mxCell id="aJ_5fjYi1K7bg0W1sloE-12" style="edgeStyle=orthogonalEdgeStyle;rounded=0;orthogonalLoop=1;jettySize=auto;html=1;exitX=0.5;exitY=1;exitDx=0;exitDy=0;entryX=0.5;entryY=1;entryDx=0;entryDy=0;" edge="1" parent="1" source="aJ_5fjYi1K7bg0W1sloE-8" target="aJ_5fjYi1K7bg0W1sloE-1">
          <mxGeometry relative="1" as="geometry" />
        </mxCell>
        <mxCell id="aJ_5fjYi1K7bg0W1sloE-8" value="Proxy" style="rounded=1;whiteSpace=wrap;html=1;" vertex="1" parent="1">
          <mxGeometry x="250" y="590" width="120" height="60" as="geometry" />
        </mxCell>
        <mxCell id="aJ_5fjYi1K7bg0W1sloE-13" value=":5000" style="text;html=1;align=center;verticalAlign=middle;whiteSpace=wrap;rounded=0;" vertex="1" parent="1">
          <mxGeometry x="300" y="650" width="60" height="30" as="geometry" />
        </mxCell>
      </root>
    </mxGraphModel>
  </diagram>
</mxfile>
